<mxfile host="app.diagrams.net" modified="2020-12-24T08:01:20.956Z" agent="5.0 (Windows NT 6.1) AppleWebKit/537.36 (KHTML, like Gecko) Chrome/87.0.4280.88 Safari/537.36" etag="hW1yDPU5RdrsecMT5XF2" version="14.1.2" type="github">
  <diagram id="8gqzO-sBCFq0tF3Lt717" name="Page-1">
    <mxGraphModel dx="1296" dy="826" grid="1" gridSize="10" guides="1" tooltips="1" connect="1" arrows="1" fold="1" page="1" pageScale="1" pageWidth="827" pageHeight="1169" background="#DAD2D8" math="0" shadow="0">
      <root>
        <mxCell id="0" />
        <mxCell id="1" parent="0" />
        <mxCell id="kLUBncIEuIzbrDYKi5dw-212" value="Pool" style="swimlane;html=1;childLayout=stackLayout;resizeParent=1;resizeParentMax=0;startSize=20;rounded=0;sketch=0;strokeColor=#0F8B8D;fillColor=#FAE5C7;fontColor=#143642;fontSize=20;" vertex="1" parent="1">
          <mxGeometry x="40" y="40" width="1770" height="640" as="geometry" />
        </mxCell>
        <mxCell id="kLUBncIEuIzbrDYKi5dw-213" value="差旅资源提供方" style="swimlane;html=1;startSize=20;fontSize=20;" vertex="1" parent="kLUBncIEuIzbrDYKi5dw-212">
          <mxGeometry y="20" width="280" height="620" as="geometry" />
        </mxCell>
        <mxCell id="kLUBncIEuIzbrDYKi5dw-216" value="航空公司" style="rounded=1;whiteSpace=wrap;html=1;sketch=0;strokeColor=#6c8ebf;fillColor=#dae8fc;fontSize=16;" vertex="1" parent="kLUBncIEuIzbrDYKi5dw-213">
          <mxGeometry x="40" y="60" width="150" height="40" as="geometry" />
        </mxCell>
        <mxCell id="kLUBncIEuIzbrDYKi5dw-217" value="中铁集团" style="rounded=1;whiteSpace=wrap;html=1;sketch=0;strokeColor=#b85450;fillColor=#f8cecc;fontSize=16;" vertex="1" parent="kLUBncIEuIzbrDYKi5dw-213">
          <mxGeometry x="40" y="270" width="150" height="40" as="geometry" />
        </mxCell>
        <mxCell id="kLUBncIEuIzbrDYKi5dw-218" value="酒店&lt;br&gt;（酒店服务人员系统）" style="rounded=1;whiteSpace=wrap;html=1;sketch=0;strokeColor=#0F8B8D;fillColor=#FAE5C7;fontColor=#143642;fontSize=16;" vertex="1" parent="kLUBncIEuIzbrDYKi5dw-213">
          <mxGeometry x="40" y="390" width="170" height="40" as="geometry" />
        </mxCell>
        <mxCell id="kLUBncIEuIzbrDYKi5dw-219" value="签证" style="rounded=1;whiteSpace=wrap;html=1;sketch=0;strokeColor=#0F8B8D;fillColor=#FAE5C7;fontColor=#143642;fontSize=16;" vertex="1" parent="kLUBncIEuIzbrDYKi5dw-213">
          <mxGeometry x="40" y="460" width="170" height="40" as="geometry" />
        </mxCell>
        <mxCell id="kLUBncIEuIzbrDYKi5dw-220" value="其他" style="rounded=1;whiteSpace=wrap;html=1;sketch=0;strokeColor=#0F8B8D;fillColor=#FAE5C7;fontColor=#143642;fontSize=16;" vertex="1" parent="kLUBncIEuIzbrDYKi5dw-213">
          <mxGeometry x="40" y="530" width="170" height="40" as="geometry" />
        </mxCell>
        <mxCell id="kLUBncIEuIzbrDYKi5dw-222" value="厦门航空" style="rounded=1;whiteSpace=wrap;html=1;sketch=0;strokeColor=#6c8ebf;fillColor=#dae8fc;fontSize=16;" vertex="1" parent="kLUBncIEuIzbrDYKi5dw-213">
          <mxGeometry x="40" y="140" width="150" height="40" as="geometry" />
        </mxCell>
        <mxCell id="kLUBncIEuIzbrDYKi5dw-214" value="市场一级系统提供商" style="swimlane;html=1;startSize=20;fontSize=20;" vertex="1" parent="kLUBncIEuIzbrDYKi5dw-212">
          <mxGeometry x="280" y="20" width="320" height="620" as="geometry" />
        </mxCell>
        <mxCell id="kLUBncIEuIzbrDYKi5dw-221" value="中航信&lt;br&gt;(eTerm黑屏+接口白屏）" style="rounded=1;whiteSpace=wrap;html=1;sketch=0;strokeColor=#0F8B8D;fillColor=#FAE5C7;fontColor=#143642;fontSize=16;" vertex="1" parent="kLUBncIEuIzbrDYKi5dw-214">
          <mxGeometry x="50" y="60" width="190" height="40" as="geometry" />
        </mxCell>
        <mxCell id="kLUBncIEuIzbrDYKi5dw-223" value="航空公司&lt;br&gt;(官网+App)" style="rounded=1;whiteSpace=wrap;html=1;sketch=0;strokeColor=#0F8B8D;fillColor=#FAE5C7;fontColor=#143642;fontSize=16;" vertex="1" parent="kLUBncIEuIzbrDYKi5dw-214">
          <mxGeometry x="50" y="140" width="190" height="40" as="geometry" />
        </mxCell>
        <mxCell id="kLUBncIEuIzbrDYKi5dw-224" value="12306&lt;br&gt;（官网+App）" style="rounded=1;whiteSpace=wrap;html=1;sketch=0;strokeColor=#0F8B8D;fillColor=#FAE5C7;fontColor=#143642;fontSize=16;" vertex="1" parent="kLUBncIEuIzbrDYKi5dw-214">
          <mxGeometry x="50" y="270" width="190" height="40" as="geometry" />
        </mxCell>
        <mxCell id="kLUBncIEuIzbrDYKi5dw-235" value="接口接入" style="edgeStyle=orthogonalEdgeStyle;curved=0;rounded=1;sketch=0;orthogonalLoop=1;jettySize=auto;html=1;exitX=0.25;exitY=0;exitDx=0;exitDy=0;entryX=0.25;entryY=1;entryDx=0;entryDy=0;strokeColor=#A8201A;fillColor=#FAE5C7;fontSize=16;fontColor=#143642;" edge="1" parent="kLUBncIEuIzbrDYKi5dw-214" source="kLUBncIEuIzbrDYKi5dw-225" target="kLUBncIEuIzbrDYKi5dw-224">
          <mxGeometry relative="1" as="geometry" />
        </mxCell>
        <mxCell id="kLUBncIEuIzbrDYKi5dw-236" style="edgeStyle=orthogonalEdgeStyle;curved=0;rounded=1;sketch=0;orthogonalLoop=1;jettySize=auto;html=1;exitX=1;exitY=0;exitDx=0;exitDy=0;strokeColor=#A8201A;fillColor=#FAE5C7;fontSize=16;fontColor=#143642;" edge="1" parent="kLUBncIEuIzbrDYKi5dw-214" source="kLUBncIEuIzbrDYKi5dw-225">
          <mxGeometry relative="1" as="geometry">
            <mxPoint x="156" y="180" as="targetPoint" />
            <Array as="points">
              <mxPoint x="250" y="420" />
              <mxPoint x="250" y="220" />
              <mxPoint x="156" y="220" />
            </Array>
          </mxGeometry>
        </mxCell>
        <mxCell id="kLUBncIEuIzbrDYKi5dw-238" value="数据抓取+接口" style="edgeLabel;html=1;align=center;verticalAlign=middle;resizable=0;points=[];fontSize=16;fontColor=#143642;" vertex="1" connectable="0" parent="kLUBncIEuIzbrDYKi5dw-236">
          <mxGeometry x="0.5841" y="3" relative="1" as="geometry">
            <mxPoint as="offset" />
          </mxGeometry>
        </mxCell>
        <mxCell id="kLUBncIEuIzbrDYKi5dw-237" style="edgeStyle=orthogonalEdgeStyle;curved=0;rounded=1;sketch=0;orthogonalLoop=1;jettySize=auto;html=1;exitX=1;exitY=0.5;exitDx=0;exitDy=0;entryX=1;entryY=0.5;entryDx=0;entryDy=0;strokeColor=#A8201A;fillColor=#FAE5C7;fontSize=16;fontColor=#143642;" edge="1" parent="kLUBncIEuIzbrDYKi5dw-214" source="kLUBncIEuIzbrDYKi5dw-225" target="kLUBncIEuIzbrDYKi5dw-221">
          <mxGeometry relative="1" as="geometry" />
        </mxCell>
        <mxCell id="kLUBncIEuIzbrDYKi5dw-239" value="接口接入" style="edgeLabel;html=1;align=center;verticalAlign=middle;resizable=0;points=[];fontSize=16;fontColor=#143642;" vertex="1" connectable="0" parent="kLUBncIEuIzbrDYKi5dw-237">
          <mxGeometry x="0.4482" y="-4" relative="1" as="geometry">
            <mxPoint as="offset" />
          </mxGeometry>
        </mxCell>
        <mxCell id="kLUBncIEuIzbrDYKi5dw-225" value="互联网提供商&lt;br&gt;（同城，携程）" style="rounded=1;whiteSpace=wrap;html=1;sketch=0;strokeColor=#0F8B8D;fillColor=#FAE5C7;fontColor=#143642;fontSize=16;" vertex="1" parent="kLUBncIEuIzbrDYKi5dw-214">
          <mxGeometry x="50" y="420" width="190" height="40" as="geometry" />
        </mxCell>
        <mxCell id="kLUBncIEuIzbrDYKi5dw-215" value="市场二级系统提供商" style="swimlane;html=1;startSize=20;fontSize=20;" vertex="1" parent="kLUBncIEuIzbrDYKi5dw-212">
          <mxGeometry x="600" y="20" width="390" height="620" as="geometry" />
        </mxCell>
        <mxCell id="kLUBncIEuIzbrDYKi5dw-246" style="edgeStyle=orthogonalEdgeStyle;curved=0;rounded=1;sketch=0;orthogonalLoop=1;jettySize=auto;html=1;exitX=0.25;exitY=1;exitDx=0;exitDy=0;entryX=0.25;entryY=0;entryDx=0;entryDy=0;strokeColor=#A8201A;fillColor=#FAE5C7;fontSize=16;fontColor=#143642;" edge="1" parent="kLUBncIEuIzbrDYKi5dw-215" source="kLUBncIEuIzbrDYKi5dw-240" target="kLUBncIEuIzbrDYKi5dw-242">
          <mxGeometry relative="1" as="geometry" />
        </mxCell>
        <mxCell id="kLUBncIEuIzbrDYKi5dw-247" value="间接对接" style="edgeLabel;html=1;align=center;verticalAlign=middle;resizable=0;points=[];fontSize=16;fontColor=#143642;" vertex="1" connectable="0" parent="kLUBncIEuIzbrDYKi5dw-246">
          <mxGeometry x="-0.2675" y="-2" relative="1" as="geometry">
            <mxPoint as="offset" />
          </mxGeometry>
        </mxCell>
        <mxCell id="kLUBncIEuIzbrDYKi5dw-240" value="业务系统提供商&lt;br&gt;（胜意，三和）" style="rounded=1;whiteSpace=wrap;html=1;sketch=0;strokeColor=#0F8B8D;fillColor=#FAE5C7;fontColor=#143642;fontSize=16;" vertex="1" parent="kLUBncIEuIzbrDYKi5dw-215">
          <mxGeometry x="80" y="60" width="190" height="40" as="geometry" />
        </mxCell>
        <mxCell id="kLUBncIEuIzbrDYKi5dw-242" value="数据集成分发提供商" style="rounded=1;whiteSpace=wrap;html=1;sketch=0;strokeColor=#0F8B8D;fillColor=#FAE5C7;fontColor=#143642;fontSize=16;" vertex="1" parent="kLUBncIEuIzbrDYKi5dw-215">
          <mxGeometry x="80" y="200" width="190" height="40" as="geometry" />
        </mxCell>
        <mxCell id="kLUBncIEuIzbrDYKi5dw-250" value="分销代理服务商（云天票务）" style="swimlane;html=1;startSize=20;fontSize=20;" vertex="1" parent="kLUBncIEuIzbrDYKi5dw-212">
          <mxGeometry x="990" y="20" width="390" height="620" as="geometry" />
        </mxCell>
        <mxCell id="kLUBncIEuIzbrDYKi5dw-253" value="云天差旅服务系统" style="rounded=1;whiteSpace=wrap;html=1;sketch=0;strokeColor=#666666;fontColor=#333333;fontSize=16;container=1;arcSize=4;fillColor=#f5f5f5;verticalAlign=top;align=left;" vertex="1" parent="kLUBncIEuIzbrDYKi5dw-250">
          <mxGeometry x="40" y="60" width="300" height="510" as="geometry" />
        </mxCell>
        <mxCell id="kLUBncIEuIzbrDYKi5dw-258" value="机票业务" style="rounded=1;whiteSpace=wrap;html=1;sketch=0;strokeColor=#56517e;fillColor=#d0cee2;fontSize=16;" vertex="1" parent="kLUBncIEuIzbrDYKi5dw-253">
          <mxGeometry x="40" y="40" width="189" height="60" as="geometry" />
        </mxCell>
        <mxCell id="kLUBncIEuIzbrDYKi5dw-259" value="火车票业务" style="rounded=1;whiteSpace=wrap;html=1;sketch=0;strokeColor=#56517e;fillColor=#d0cee2;fontSize=16;" vertex="1" parent="kLUBncIEuIzbrDYKi5dw-253">
          <mxGeometry x="40" y="107" width="189" height="60" as="geometry" />
        </mxCell>
        <mxCell id="kLUBncIEuIzbrDYKi5dw-260" value="酒店业务" style="rounded=1;whiteSpace=wrap;html=1;sketch=0;strokeColor=#56517e;fillColor=#d0cee2;fontSize=16;" vertex="1" parent="kLUBncIEuIzbrDYKi5dw-253">
          <mxGeometry x="40" y="173" width="189" height="60" as="geometry" />
        </mxCell>
        <mxCell id="kLUBncIEuIzbrDYKi5dw-261" value="机场服务业务" style="rounded=1;whiteSpace=wrap;html=1;sketch=0;strokeColor=#56517e;fillColor=#d0cee2;fontSize=16;" vertex="1" parent="kLUBncIEuIzbrDYKi5dw-253">
          <mxGeometry x="40" y="240" width="189" height="60" as="geometry" />
        </mxCell>
        <mxCell id="kLUBncIEuIzbrDYKi5dw-262" value="地接" style="rounded=1;whiteSpace=wrap;html=1;sketch=0;strokeColor=#56517e;fillColor=#d0cee2;fontSize=16;" vertex="1" parent="kLUBncIEuIzbrDYKi5dw-253">
          <mxGeometry x="40" y="307" width="189" height="60" as="geometry" />
        </mxCell>
        <mxCell id="kLUBncIEuIzbrDYKi5dw-263" value="机票业务" style="rounded=1;whiteSpace=wrap;html=1;sketch=0;strokeColor=#56517e;fillColor=#d0cee2;fontSize=16;" vertex="1" parent="kLUBncIEuIzbrDYKi5dw-253">
          <mxGeometry x="40" y="373" width="189" height="60" as="geometry" />
        </mxCell>
        <mxCell id="kLUBncIEuIzbrDYKi5dw-265" value="机票业务" style="rounded=1;whiteSpace=wrap;html=1;sketch=0;strokeColor=#56517e;fillColor=#d0cee2;fontSize=16;" vertex="1" parent="kLUBncIEuIzbrDYKi5dw-253">
          <mxGeometry x="40" y="440" width="189" height="60" as="geometry" />
        </mxCell>
        <mxCell id="kLUBncIEuIzbrDYKi5dw-255" value="客户" style="swimlane;html=1;startSize=20;fontSize=20;" vertex="1" parent="kLUBncIEuIzbrDYKi5dw-212">
          <mxGeometry x="1380" y="20" width="390" height="620" as="geometry" />
        </mxCell>
        <mxCell id="kLUBncIEuIzbrDYKi5dw-256" value="大型" style="rounded=1;whiteSpace=wrap;html=1;sketch=0;strokeColor=#0F8B8D;fillColor=#FAE5C7;fontColor=#143642;fontSize=16;" vertex="1" parent="kLUBncIEuIzbrDYKi5dw-255">
          <mxGeometry x="80" y="60" width="190" height="40" as="geometry" />
        </mxCell>
        <mxCell id="kLUBncIEuIzbrDYKi5dw-257" value="云天票务" style="rounded=1;whiteSpace=wrap;html=1;sketch=0;strokeColor=#0F8B8D;fillColor=#FAE5C7;fontColor=#143642;fontSize=16;" vertex="1" parent="kLUBncIEuIzbrDYKi5dw-255">
          <mxGeometry x="90" y="280" width="190" height="40" as="geometry" />
        </mxCell>
        <mxCell id="kLUBncIEuIzbrDYKi5dw-228" style="edgeStyle=orthogonalEdgeStyle;curved=0;rounded=1;sketch=0;orthogonalLoop=1;jettySize=auto;html=1;exitX=1;exitY=0.5;exitDx=0;exitDy=0;entryX=0;entryY=0.5;entryDx=0;entryDy=0;strokeColor=#A8201A;fillColor=#FAE5C7;fontSize=16;fontColor=#143642;" edge="1" parent="kLUBncIEuIzbrDYKi5dw-212" source="kLUBncIEuIzbrDYKi5dw-216" target="kLUBncIEuIzbrDYKi5dw-221">
          <mxGeometry relative="1" as="geometry" />
        </mxCell>
        <mxCell id="kLUBncIEuIzbrDYKi5dw-229" style="edgeStyle=orthogonalEdgeStyle;curved=0;rounded=1;sketch=0;orthogonalLoop=1;jettySize=auto;html=1;exitX=1;exitY=0.5;exitDx=0;exitDy=0;entryX=0;entryY=0.5;entryDx=0;entryDy=0;strokeColor=#A8201A;fillColor=#FAE5C7;fontSize=16;fontColor=#143642;" edge="1" parent="kLUBncIEuIzbrDYKi5dw-212" source="kLUBncIEuIzbrDYKi5dw-222" target="kLUBncIEuIzbrDYKi5dw-223">
          <mxGeometry relative="1" as="geometry" />
        </mxCell>
        <mxCell id="kLUBncIEuIzbrDYKi5dw-230" style="edgeStyle=orthogonalEdgeStyle;curved=0;rounded=1;sketch=0;orthogonalLoop=1;jettySize=auto;html=1;exitX=1;exitY=0.25;exitDx=0;exitDy=0;entryX=0;entryY=0.75;entryDx=0;entryDy=0;strokeColor=#A8201A;fillColor=#FAE5C7;fontSize=16;fontColor=#143642;" edge="1" parent="kLUBncIEuIzbrDYKi5dw-212" source="kLUBncIEuIzbrDYKi5dw-222" target="kLUBncIEuIzbrDYKi5dw-221">
          <mxGeometry relative="1" as="geometry" />
        </mxCell>
        <mxCell id="kLUBncIEuIzbrDYKi5dw-231" style="edgeStyle=orthogonalEdgeStyle;curved=0;rounded=1;sketch=0;orthogonalLoop=1;jettySize=auto;html=1;exitX=1;exitY=0.25;exitDx=0;exitDy=0;entryX=0;entryY=0.5;entryDx=0;entryDy=0;strokeColor=#A8201A;fillColor=#FAE5C7;fontSize=16;fontColor=#143642;" edge="1" parent="kLUBncIEuIzbrDYKi5dw-212" source="kLUBncIEuIzbrDYKi5dw-217" target="kLUBncIEuIzbrDYKi5dw-224">
          <mxGeometry relative="1" as="geometry" />
        </mxCell>
        <mxCell id="kLUBncIEuIzbrDYKi5dw-232" style="edgeStyle=orthogonalEdgeStyle;curved=0;rounded=1;sketch=0;orthogonalLoop=1;jettySize=auto;html=1;exitX=1;exitY=0.5;exitDx=0;exitDy=0;strokeColor=#A8201A;fillColor=#FAE5C7;fontSize=16;fontColor=#143642;" edge="1" parent="kLUBncIEuIzbrDYKi5dw-212" source="kLUBncIEuIzbrDYKi5dw-218" target="kLUBncIEuIzbrDYKi5dw-225">
          <mxGeometry relative="1" as="geometry" />
        </mxCell>
        <mxCell id="kLUBncIEuIzbrDYKi5dw-233" style="edgeStyle=orthogonalEdgeStyle;curved=0;rounded=1;sketch=0;orthogonalLoop=1;jettySize=auto;html=1;exitX=1;exitY=0.25;exitDx=0;exitDy=0;entryX=0;entryY=0.75;entryDx=0;entryDy=0;strokeColor=#A8201A;fillColor=#FAE5C7;fontSize=16;fontColor=#143642;" edge="1" parent="kLUBncIEuIzbrDYKi5dw-212" source="kLUBncIEuIzbrDYKi5dw-219" target="kLUBncIEuIzbrDYKi5dw-225">
          <mxGeometry relative="1" as="geometry" />
        </mxCell>
        <mxCell id="kLUBncIEuIzbrDYKi5dw-234" style="edgeStyle=orthogonalEdgeStyle;curved=0;rounded=1;sketch=0;orthogonalLoop=1;jettySize=auto;html=1;exitX=1;exitY=0.5;exitDx=0;exitDy=0;entryX=0.075;entryY=1.118;entryDx=0;entryDy=0;entryPerimeter=0;strokeColor=#A8201A;fillColor=#FAE5C7;fontSize=16;fontColor=#143642;" edge="1" parent="kLUBncIEuIzbrDYKi5dw-212" source="kLUBncIEuIzbrDYKi5dw-220" target="kLUBncIEuIzbrDYKi5dw-225">
          <mxGeometry relative="1" as="geometry" />
        </mxCell>
        <mxCell id="kLUBncIEuIzbrDYKi5dw-243" style="edgeStyle=orthogonalEdgeStyle;curved=0;rounded=1;sketch=0;orthogonalLoop=1;jettySize=auto;html=1;exitX=0;exitY=0.5;exitDx=0;exitDy=0;entryX=1;entryY=0.25;entryDx=0;entryDy=0;strokeColor=#A8201A;fillColor=#FAE5C7;fontSize=16;fontColor=#143642;" edge="1" parent="kLUBncIEuIzbrDYKi5dw-212" source="kLUBncIEuIzbrDYKi5dw-242" target="kLUBncIEuIzbrDYKi5dw-221">
          <mxGeometry relative="1" as="geometry">
            <Array as="points">
              <mxPoint x="620" y="240" />
              <mxPoint x="620" y="90" />
            </Array>
          </mxGeometry>
        </mxCell>
        <mxCell id="kLUBncIEuIzbrDYKi5dw-244" style="edgeStyle=orthogonalEdgeStyle;curved=0;rounded=1;sketch=0;orthogonalLoop=1;jettySize=auto;html=1;exitX=0;exitY=0;exitDx=0;exitDy=0;entryX=0.902;entryY=-0.017;entryDx=0;entryDy=0;entryPerimeter=0;strokeColor=#A8201A;fillColor=#FAE5C7;fontSize=16;fontColor=#143642;" edge="1" parent="kLUBncIEuIzbrDYKi5dw-212" source="kLUBncIEuIzbrDYKi5dw-240" target="kLUBncIEuIzbrDYKi5dw-221">
          <mxGeometry relative="1" as="geometry" />
        </mxCell>
        <mxCell id="kLUBncIEuIzbrDYKi5dw-245" value="直接对接" style="edgeLabel;html=1;align=center;verticalAlign=middle;resizable=0;points=[];fontSize=16;fontColor=#143642;" vertex="1" connectable="0" parent="kLUBncIEuIzbrDYKi5dw-244">
          <mxGeometry x="-0.3369" y="2" relative="1" as="geometry">
            <mxPoint as="offset" />
          </mxGeometry>
        </mxCell>
        <mxCell id="kLUBncIEuIzbrDYKi5dw-248" style="edgeStyle=orthogonalEdgeStyle;curved=0;rounded=1;sketch=0;orthogonalLoop=1;jettySize=auto;html=1;exitX=0.25;exitY=1;exitDx=0;exitDy=0;entryX=1;entryY=0.75;entryDx=0;entryDy=0;strokeColor=#A8201A;fillColor=#FAE5C7;fontSize=16;fontColor=#143642;" edge="1" parent="kLUBncIEuIzbrDYKi5dw-212" source="kLUBncIEuIzbrDYKi5dw-242" target="kLUBncIEuIzbrDYKi5dw-225">
          <mxGeometry relative="1" as="geometry" />
        </mxCell>
        <mxCell id="kLUBncIEuIzbrDYKi5dw-249" value="直接对接" style="edgeLabel;html=1;align=center;verticalAlign=middle;resizable=0;points=[];fontSize=16;fontColor=#143642;" vertex="1" connectable="0" parent="kLUBncIEuIzbrDYKi5dw-248">
          <mxGeometry x="-0.4083" y="-2" relative="1" as="geometry">
            <mxPoint as="offset" />
          </mxGeometry>
        </mxCell>
      </root>
    </mxGraphModel>
  </diagram>
</mxfile>
